name analog
datacolumns 19
datarows 55
range 0.187 0.214
endheader
time	ground_force_vx	ground_force_vy	ground_force_vz	ground_force_px	ground_force_py	ground_force_pz	l_ground_force_vx	l_ground_force_vy	l_ground_force_vz	l_ground_force_px	l_ground_force_py	l_ground_force_pz	ground_torque_x	ground_torque_y	ground_torque_z	l_ground_torque_x	l_ground_torque_y	l_ground_torque_z
0.187	-0.0	-0.0	-0.0	-7.55256175994873	25.86296844482422	-209.94427490234372	-8.49732780456543	-26.09254646301269	-249.84371948242188	-0.0	-0.0	-0.0	-0.0	-0.0	-0.0	71004.53125	-17486.154296875	-1378.191162109375
0.1875	-0.0	-0.0	-0.0	-7.9049787521362305	26.452049255371094	-209.16050720214844	-8.411638259887695	-25.32942771911621	-248.17208862304688	-0.0	-0.0	-0.0	-0.0	-0.0	-0.0	70404.7578125	-16879.306640625	-1518.9354248046875
0.188	-0.0	-0.0	-0.0	-8.990422248840332	26.164695739746094	-208.1015167236328	-8.230982780456543	-24.925752639770508	-245.6522216796875	-0.0	-0.0	-0.0	-0.0	-0.0	-0.0	69507.9765625	-16390.10546875	-1451.783447265625
0.1885	-0.0	-0.0	-0.0	-9.738652229309082	26.10573387145996	-207.7487030029297	-8.0223970413208	-25.00684356689453	-243.7223052978516	-0.0	-0.0	-0.0	-0.0	-0.0	-0.0	69146.109375	-16133.7734375	-1494.029541015625
0.189	-0.0	-0.0	-0.0	-10.432217597961426	25.62040328979492	-207.6120147705078	-7.891397476196289	-24.67630958557129	-242.85769653320312	-0.0	-0.0	-0.0	-0.0	-0.0	-0.0	68978.0390625	-16136.81640625	-1625.3455810546875
0.1895	-0.0	-0.0	-0.0	-9.95128059387207	24.88751220703125	-208.02297973632807	-8.083680152893066	-24.35744285583496	-244.77186584472656	-0.0	-0.0	-0.0	-0.0	-0.0	-0.0	68818.203125	-15997.6943359375	-1714.369873046875
0.19	-0.0	-0.0	-0.0	-9.957093238830566	24.02476119995117	-209.3555603027344	-8.979310035705566	-24.587871551513672	-244.05697631835935	-0.0	-0.0	-0.0	-0.0	-0.0	-0.0	69054.1953125	-15989.197265625	-1810.5697021484373
0.1905	-0.0	-0.0	-0.0	-9.531396865844728	24.44202995300293	-210.92886352539065	-9.388383865356444	-24.833288192749023	-246.0747528076172	-0.0	-0.0	-0.0	-0.0	-0.0	-0.0	69755.0390625	-16092.11328125	-2007.0283203125
0.191	-0.0	-0.0	-0.0	-8.529833793640137	24.723464965820312	-213.12950134277344	-9.615251541137695	-24.342449188232425	-248.78973388671875	-0.0	-0.0	-0.0	-0.0	-0.0	-0.0	70041.3515625	-16381.7939453125	-2035.10791015625
0.1915	-0.0	-0.0	-0.0	-8.378718376159668	24.963239669799805	-216.0648193359375	-9.260371208190918	-25.08850860595703	-251.04000854492188	-0.0	-0.0	-0.0	-0.0	-0.0	-0.0	71217.7734375	-16410.076171875	-2166.913818359375
0.192	-0.0	-0.0	-0.0	-8.228043556213379	25.525531768798828	-220.1667633056641	-8.919885635375977	-25.328458786010746	-254.31768798828125	-0.0	-0.0	-0.0	-0.0	-0.0	-0.0	71661.9453125	-17052.810546875	-1965.779296875
0.1925	-0.0	-0.0	-0.0	-7.349481582641602	26.01995658874512	-224.08053588867188	-7.915305137634277	-25.844072341918945	-257.4598999023437	-0.0	-0.0	-0.0	-0.0	-0.0	-0.0	72672.1796875	-17296.6328125	-1618.8294677734375
0.193	-0.0	-0.0	-0.0	-7.863856792449951	26.122716903686523	-226.6589813232422	-7.314527988433838	-26.4282169342041	-259.7453918457031	-0.0	-0.0	-0.0	-0.0	-0.0	-0.0	73762.3515625	-17638.12890625	-1437.7779541015625
0.1935	-0.0	-0.0	-0.0	-8.755749702453613	26.45075798034668	-227.90493774414065	-6.796506404876709	-26.67314910888672	-263.7441711425781	-0.0	-0.0	-0.0	-0.0	-0.0	-0.0	74230.4140625	-18328.931640625	-1161.7305908203125
0.194	-0.0	-0.0	-0.0	-9.503353118896484	26.264299392700195	-228.0707550048828	-6.735482215881348	-27.624420166015625	-264.92596435546875	-0.0	-0.0	-0.0	-0.0	-0.0	-0.0	74873.21875	-18526.408203125	-961.05615234375
0.1945	-0.0	-0.0	-0.0	-10.012736320495604	25.907520294189453	-228.01953125	-6.728310108184815	-27.997974395751957	-266.6979064941406	-0.0	-0.0	-0.0	-0.0	-0.0	-0.0	75265.7578125	-18588.365234375	-1043.3062744140625
0.195	-0.0	-0.0	-0.0	-10.858375549316406	25.962230682373047	-226.2196807861328	-7.028723239898682	-28.37174224853516	-268.49761962890625	-0.0	-0.0	-0.0	-0.0	-0.0	-0.0	76039.1328125	-18895.10546875	-1041.2025146484375
0.1955	-0.0	-0.0	-0.0	-11.601073265075684	25.92441749572754	-226.3037109375	-7.336221218109131	-28.60289764404297	-269.76025390625	-0.0	-0.0	-0.0	-0.0	-0.0	-0.0	76205.5390625	-19229.578125	-995.8724365234376
0.196	-0.0	-0.0	-0.0	-12.53564739227295	26.081392288208008	-227.3138732910156	-6.817554950714111	-28.6424617767334	-269.11407470703125	-0.0	-0.0	-0.0	-0.0	-0.0	-0.0	76013.5625	-19178.69921875	-902.0449829101562
0.1965	-0.0	-0.0	-0.0	-12.50166130065918	26.28129005432129	-227.75279235839844	-6.11320161819458	-28.69156837463379	-267.50146484375	-0.0	-0.0	-0.0	-0.0	-0.0	-0.0	75690.7421875	-19073.41015625	-741.8952026367188
0.197	-0.0	-0.0	-0.0	-12.255600929260254	25.970678329467773	-228.2878875732422	-5.2758469581604	-28.59049415588379	-264.358642578125	-0.0	-0.0	-0.0	-0.0	-0.0	-0.0	74611.0859375	-19027.955078125	-378.31103515625
0.1975	-0.0	-0.0	-0.0	-12.366570472717283	25.546764373779297	-227.18112182617188	-3.869467258453369	-28.018978118896484	-262.345947265625	-0.0	-0.0	-0.0	-0.0	-0.0	-0.0	74213.2890625	-18928.625	-5.618311405181885
0.198	-0.0	-0.0	-0.0	-12.378339767456056	25.479581832885746	-226.5679473876953	-3.0962655544281006	-27.669727325439453	-260.9491577148437	-0.0	-0.0	-0.0	-0.0	-0.0	-0.0	73774.8046875	-19323.904296875	194.213134765625
0.1985	-0.0	-0.0	-0.0	-12.523078918457031	25.235506057739254	-226.03515625	-2.9311230182647705	-27.13592529296875	-258.6376647949219	-0.0	-0.0	-0.0	-0.0	-0.0	-0.0	73652.421875	-19337.44921875	184.45225524902344
0.199	-0.0	-0.0	-0.0	-12.70142936706543	25.245359420776367	-225.5943298339844	-2.973363161087036	-27.03863525390625	-259.8890686035156	-0.0	-0.0	-0.0	-0.0	-0.0	-0.0	73679.625	-19594.1328125	224.23263549804688
0.1995	-0.0	-0.0	-0.0	-12.690122604370115	25.48033332824707	-225.859130859375	-3.5269365310668945	-26.81633186340332	-259.8164978027344	-0.0	-0.0	-0.0	-0.0	-0.0	-0.0	73981.40625	-19652.86328125	94.04769897460938
0.2	-0.0	-0.0	-0.0	-12.612101554870604	26.02607727050781	-225.63714599609372	-4.469076633453369	-26.441574096679688	-261.382568359375	-0.0	-0.0	-0.0	-0.0	-0.0	-0.0	74473.78125	-20053.640625	-102.86663055419922
0.2005	-0.0	-0.0	-0.0	-13.292366027832031	26.160053253173828	-226.16732788085935	-5.157021999359131	-26.00979804992676	-264.65692138671875	-0.0	-0.0	-0.0	-0.0	-0.0	-0.0	75244.359375	-20686.828125	-237.01443481445312
0.201	-0.0	-0.0	-0.0	-12.52281665802002	26.04857635498047	-225.3716583251953	-5.622243881225586	-25.568340301513672	-264.65692138671875	-0.0	-0.0	-0.0	-0.0	-0.0	-0.0	75549.953125	-20974.921875	-425.7894592285156
0.2015	-0.0	-0.0	-0.0	-11.71985149383545	26.181697845458984	-225.4605255126953	-4.768459796905518	-25.336902618408203	-267.79931640625	-0.0	-0.0	-0.0	-0.0	-0.0	-0.0	76141.15625	-21595.51171875	-277.1445007324219
0.202	-0.0	-0.0	-0.0	-10.951945304870604	26.158870697021484	-225.80636596679688	-5.267284393310547	-25.403444290161133	-270.3746032714844	-0.0	-0.0	-0.0	-0.0	-0.0	-0.0	77285.4140625	-22342.46875	-280.7469482421875
0.2025	-0.0	-0.0	-0.0	-10.014411926269531	26.3701286315918	-227.3574676513672	-4.612960815429688	-25.514131546020508	-273.73486328125	-0.0	-0.0	-0.0	-0.0	-0.0	-0.0	78218.5390625	-22843.73828125	-83.97638702392578
0.203	-0.0	-0.0	-0.0	-9.244775772094728	27.230684280395508	-231.33285522460935	-4.158405780792236	-26.07680320739746	-278.7105407714844	-0.0	-0.0	-0.0	-0.0	-0.0	-0.0	79721.8984375	-23573.39453125	1.533247470855713
0.20350000000000001	-0.0	-0.0	-0.0	-8.431886672973633	27.350027084350582	-235.21783447265625	-3.980570077896118	-26.87200355529785	-283.1170349121094	-0.0	-0.0	-0.0	-0.0	-0.0	-0.0	80825.2265625	-24449.560546875	227.6558532714844
0.20400000000000001	-0.0	-0.0	-0.0	-6.9816107749938965	28.300678253173828	-239.23350524902344	-4.059332370758057	-27.58935165405273	-287.351806640625	-0.0	-0.0	-0.0	-0.0	-0.0	-0.0	82155.546875	-25092.640625	349.6456604003906
0.20450000000000002	-0.0	-0.0	-0.0	-5.868532180786133	28.291189193725582	-241.8516082763672	-3.4928057193756104	-28.316875457763672	-293.3760986328125	-0.0	-0.0	-0.0	-0.0	-0.0	-0.0	83495.84375	-25787.353515625	535.8251342773438
0.20500000000000002	-0.0	-0.0	-0.0	-4.305465221405029	28.225669860839844	-244.12306213378903	-3.7258529663085938	-29.12363815307617	-297.55926513671875	-0.0	-0.0	-0.0	-0.0	-0.0	-0.0	84871.609375	-26372.95703125	601.8470458984375
0.20550000000000002	-0.0	-0.0	-0.0	-3.6482789516448975	28.24978828430176	-244.9578094482422	-3.60416579246521	-30.062204360961918	-302.794921875	-0.0	-0.0	-0.0	-0.0	-0.0	-0.0	86057.1328125	-27069.53125	890.7490844726562
0.20600000000000002	-0.0	-0.0	-0.0	-2.5122768878936768	28.034093856811523	-246.00006103515625	-2.772885322570801	-30.569337844848636	-306.7746887207031	-0.0	-0.0	-0.0	-0.0	-0.0	-0.0	87046.15625	-27815.1875	1102.2144775390625
0.20650000000000002	-0.0	-0.0	-0.0	-1.305394411087036	28.390792846679688	-243.9176177978516	-2.582559585571289	-31.268909454345703	-307.7320251464844	-0.0	-0.0	-0.0	-0.0	-0.0	-0.0	87687.1015625	-28422.6015625	1332.7733154296875
0.20700000000000002	-0.0	-0.0	-0.0	0.1695542633533477	27.80868530273437	-246.15542602539065	-1.6065298318862915	-31.164270401000977	-306.9951171875	-0.0	-0.0	-0.0	-0.0	-0.0	-0.0	87575.765625	-29133.625	1525.754150390625
0.20750000000000002	-0.0	-0.0	-0.0	1.1923925876617432	27.25877571105957	-245.07220458984372	-0.5785692930221558	-31.25629234313965	-306.1302185058594	-0.0	-0.0	-0.0	-0.0	-0.0	-0.0	87000.546875	-29257.85546875	2001.0621337890625
0.20800000000000002	-0.0	-0.0	-0.0	2.262847900390625	27.16769790649414	-245.29722595214844	1.1066540479660034	-31.200746536254883	-300.6566162109375	-0.0	-0.0	-0.0	-0.0	-0.0	-0.0	85905.90625	-29631.34765625	2439.3994140625
0.2085	-0.0	-0.0	-0.0	3.194767475128174	26.90898323059082	-245.5888671875	2.8806848526000977	-30.89411735534668	-297.7898254394531	-0.0	-0.0	-0.0	-0.0	-0.0	-0.0	84782.125	-29974.70703125	2923.12158203125
0.209	-0.0	-0.0	-0.0	4.006851196289063	25.92037582397461	-243.34097290039065	4.991263389587402	-30.443603515625	-290.9356384277344	-0.0	-0.0	-0.0	-0.0	-0.0	-0.0	82983.65625	-30169.1328125	3596.075439453125
0.2095	-0.0	-0.0	-0.0	5.239070415496826	25.815414428710938	-242.89138793945312	6.780264377593994	-30.317834854125977	-287.7233581542969	-0.0	-0.0	-0.0	-0.0	-0.0	-0.0	81827.8515625	-30487.876953125	4204.51806640625
0.21	-0.0	-0.0	-0.0	6.406653881072998	25.264190673828125	-240.25912475585935	8.539928436279297	-30.17365074157715	-282.59161376953125	-0.0	-0.0	-0.0	-0.0	-0.0	-0.0	80920.6953125	-30393.869140625	4728.810546875
0.2105	-0.0	-0.0	-0.0	6.990758419036865	25.305234909057617	-239.26174926757807	9.719320297241213	-29.917377471923828	-279.7640380859375	-0.0	-0.0	-0.0	-0.0	-0.0	-0.0	80035.2890625	-30624.291015625	5128.28662109375
0.211	-0.0	-0.0	-0.0	7.394983291625977	25.159425735473636	-237.69009399414065	9.90321159362793	-29.97330474853516	-276.87725830078125	-0.0	-0.0	-0.0	-0.0	-0.0	-0.0	79286.125	-30927.099609375	5236.29736328125
0.2115	-0.0	-0.0	-0.0	7.639882087707519	25.37742042541504	-237.9452209472656	9.838557243347168	-29.563859939575195	-275.5423278808594	-0.0	-0.0	-0.0	-0.0	-0.0	-0.0	78656.828125	-30936.54296875	5328.197265625
0.212	-0.0	-0.0	-0.0	7.279931545257568	25.70167732238769	-238.84825134277344	9.169490814208984	-29.49944305419922	-274.4651794433594	-0.0	-0.0	-0.0	-0.0	-0.0	-0.0	78472.3125	-30973.765625	5128.18896484375
0.2125	-0.0	-0.0	-0.0	7.24031400680542	25.78364562988281	-240.13412475585935	7.838791847229004	-29.186241149902344	-275.7344665527344	-0.0	-0.0	-0.0	-0.0	-0.0	-0.0	78695.96875	-31523.005859375	4811.8369140625
0.213	-0.0	-0.0	-0.0	7.072701930999756	26.311525344848636	-242.1544647216797	7.395196437835693	-29.1782169342041	-277.5755615234375	-0.0	-0.0	-0.0	-0.0	-0.0	-0.0	79285.1484375	-31980.677734375	4585.00634765625
0.2135	-0.0	-0.0	-0.0	6.295162200927734	26.59282875061035	-242.68833923339844	6.596729278564453	-28.76087951660156	-278.1776123046875	-0.0	-0.0	-0.0	-0.0	-0.0	-0.0	79754.4609375	-32299.5078125	4301.24072265625
0.214	-0.0	-0.0	-0.0	5.970452785491943	26.987876892089844	-247.3524627685547	5.6378560066223145	-28.464014053344727	-283.4814147949219	-0.0	-0.0	-0.0	-0.0	-0.0	-0.0	80827.5859375	-32885.81640625	4106.82763671875
